:SAMPLES-PER-SECOND 30
:FULLY-SPECIFIED
:DEGREES
733
root  -57.3275 40.0946 15.7467 -174.945 -82.5832 178.132
RightUpLeg  -16.7473 -5.61046 -4.95148
RightLeg  11.7247 11.1452 1.02508
RightFoot  1.66989 -0.453026 4.06893
RightToes  -6.98493e-010 0 -3.6325e-017
Spine  21.6068 -2.62843 10.2735
Spine1  6.23248 1.32256 -9.92026
HEad  -24.1869 -8.43644 4.5046
LeftShoulder1  2.35689 -5.59047 -19.4284
LeftArm  0.480663 -56.3221 -49.9345
LeftForeArm  -12.0459 -22.64 -5.54654
LeftHand  -0.0496485 4.43726 3.37194
RightShoulder  1.24968 2.54598 13.7791
RightArm  -11.2922 64.7915 35.8824
RightForeArm  -26.134 -5.68655 2.67087
RightHand  -0.0732438 7.45107 -1.02731
LeftUpLeg  -18.6772 1.65439 2.25833
LeftLeg  11.4769 -13.2383 -2.21499
LeftFoot  4.89844 0.0204985 -0.353179
LeftToes  7.91257e-010 -1.64976e-010 -3.02228e-011
734
root  -57.2829 40.1128 15.2095 -173.983 -83.5657 177.628
RightUpLeg  -17.2882 -6.43574 -4.33474
RightLeg  12.2477 10.7829 1.60714
RightFoot  1.55432 -0.34093 3.10834
RightToes  -6.98493e-010 0 -3.6325e-017
Spine  22.4107 -2.5419 10.2073
Spine1  5.26248 1.15523 -9.16707
HEad  -23.4012 -10.4825 4.45234
LeftShoulder1  2.38556 -5.75409 -19.2688
LeftArm  1.56884 -57.696 -49.7027
LeftForeArm  -13.4213 -20.8188 -5.63174
LeftHand  -0.0761684 3.86898 4.56752
RightShoulder  1.26434 2.52505 14.1277
RightArm  -11.8821 64.9749 34.7881
RightForeArm  -25.9715 -5.69868 2.6647
RightHand  -0.0790124 7.25138 -1.08481
LeftUpLeg  -18.8813 1.45991 2.88639
LeftLeg  10.6319 -13.9311 -1.9603
LeftFoot  5.42681 0.142957 -1.19304
LeftToes  7.91257e-010 -1.64976e-010 -3.02228e-011
735
root  -57.1942 40.1219 14.7041 -172.15 -84.4116 176.052
RightUpLeg  -17.6075 -7.06177 -3.89292
RightLeg  12.545 10.4149 2.09753
RightFoot  1.38337 -0.268558 2.49334
RightToes  -6.98493e-010 0 -3.6325e-017
Spine  22.9851 -2.54197 10.1036
Spine1  4.94087 0.965609 -8.48916
HEad  -23.4328 -10.4654 4.84347
LeftShoulder1  2.40683 -5.8303 -19.2947
LeftArm  -0.175907 -58.3852 -49.4658
LeftForeArm  -12.3143 -20.2122 -5.5791
LeftHand  -0.0664875 4.23962 4.8017
RightShoulder  1.29153 2.79267 13.6138
RightArm  -13.1427 65.197 33.7804
RightForeArm  -25.1809 -5.5915 2.30925
RightHand  -0.023782 7.25879 -0.581457
LeftUpLeg  -19.0752 1.51543 3.37754
LeftLeg  9.98313 -14.7051 -1.80887
LeftFoot  6.07322 0.324751 -2.36149
LeftToes  7.91257e-010 -1.64976e-010 -3.02228e-011
736
root  -57.0662 40.1249 14.2464 -169.244 -85.6819 173.469
RightUpLeg  -17.9772 -7.81561 -3.52255
RightLeg  12.7563 9.67337 2.51335
RightFoot  1.39633 -0.187473 1.76352
RightToes  -6.98493e-010 0 -3.6325e-017
Spine  23.3077 -2.84155 10.5625
Spine1  4.86225 0.621534 -8.19186
HEad  -24.0749 -10.1428 4.64403
LeftShoulder1  2.4561 -6.1472 -18.9295
LeftArm  -1.47976 -59.3724 -48.9329
LeftForeArm  -11.6104 -19.3509 -5.59793
LeftHand  -0.0658827 4.13083 4.37175
RightShoulder  1.28746 2.98427 12.8799
RightArm  -14.2599 65.27 32.8187
RightForeArm  -25.4252 -5.15034 2.07747
RightHand  -0.0530406 6.87425 -0.852036
LeftUpLeg  -19.6976 1.43267 3.79527
LeftLeg  9.65741 -15.4593 -1.85363
LeftFoot  6.9782 0.52074 -3.49232
LeftToes  7.91257e-010 -1.64976e-010 -3.02228e-011
737
root  -56.9254 40.1289 13.7905 -160.78 -87.0812 165.369
RightUpLeg  -18.447 -8.16879 -3.29194
RightLeg  12.9912 8.54416 2.63924
RightFoot  1.35555 -0.12661 1.22125
RightToes  -6.98493e-010 0 -3.6325e-017
Spine  23.6542 -2.87233 10.247
Spine1  4.59833 0.153818 -6.73855
HEad  -24.6499 -10.027 4.08602
LeftShoulder1  2.546 -6.12512 -19.9925
LeftArm  -1.29247 -61.1444 -48.284
LeftForeArm  -11.265 -18.1763 -5.82431
LeftHand  -0.0746302 3.84342 4.30127
RightShoulder  1.26534 3.26156 11.598
RightArm  -15.6202 65.1548 31.5558
RightForeArm  -25.4328 -4.68412 1.8221
RightHand  -0.0143712 6.98511 -0.493025
LeftUpLeg  -20.4004 1.37418 3.96311
LeftLeg  9.18533 -16.1649 -1.79415
LeftFoot  8.13339 0.76351 -4.73537
LeftToes  7.91257e-010 -1.64976e-010 -3.02228e-011
738
root  -56.7487 40.1482 13.3862 -137.732 -87.9546 142.472
RightUpLeg  -18.6834 -8.78778 -3.38146
RightLeg  12.989 7.88273 2.89196
RightFoot  1.54462 -0.0386503 0.436854
RightToes  -6.98493e-010 0 -3.6325e-017
Spine  24.3953 -3.13687 10.2599
Spine1  3.84849 -0.132891 -6.76444
HEad  -25.0045 -10.0002 4.14917
LeftShoulder1  2.64409 -6.73168 -19.3483
LeftArm  -2.84267 -61.8813 -47.8498
LeftForeArm  -10.7281 -17.1602 -5.85597
LeftHand  -0.077513 3.91165 4.74798
RightShoulder  1.25631 3.185 11.7289
RightArm  -16.5273 65.3044 30.1552
RightForeArm  -25.5381 -4.31033 1.84928
RightHand  0.0118123 7.4252 -0.255327
LeftUpLeg  -20.7508 1.8522 3.68118
LeftLeg  8.38135 -16.6091 -1.73293
LeftFoot  9.67662 1.04383 -5.94258
LeftToes  7.91257e-010 -1.64976e-010 -3.02228e-011
739
root  -56.5837 40.1788 13.0237 -101.033 -88.0422 106.033
RightUpLeg  -19.0749 -9.42071 -3.67068
RightLeg  12.9874 7.29386 3.09297
RightFoot  1.85153 0.0445318 -0.276381
RightToes  -6.98493e-010 0 -3.6325e-017
Spine  24.4405 -3.63081 10.4412
Spine1  3.95217 -0.431746 -7.76009
HEad  -24.9051 -9.76929 4.22467
LeftShoulder1  2.6212 -7.17534 -17.9468
LeftArm  -4.26939 -63.3598 -46.6853
LeftForeArm  -10.7664 -15.5404 -6.07869
LeftHand  -0.0676718 4.20337 4.71028
RightShoulder  1.22815 2.58966 13.2113
RightArm  -17.5174 66.7095 28.2349
RightForeArm  -24.8733 -4.09192 2.11276
RightHand  0.0242905 7.01792 -0.125667
LeftUpLeg  -20.9153 2.48481 3.0496
LeftLeg  7.07511 -15.6583 -1.51284
LeftFoot  11.47 1.33895 -6.97702
LeftToes  7.91257e-010 -1.64976e-010 -3.02228e-011
740
root  -56.4227 40.2151 12.7441 -77.6436 -87.3338 82.6892
RightUpLeg  -19.2058 -10.0112 -4.13672
RightLeg  12.8633 7.01224 3.27799
RightFoot  2.12149 0.0833384 -0.583534
RightToes  -6.98493e-010 0 -3.6325e-017
Spine  24.6688 -3.69971 10.1166
Spine1  3.97723 -0.693603 -7.1823
HEad  -25.1528 -9.2337 2.49075
LeftShoulder1  2.6875 -7.56722 -17.6628
LeftArm  -5.88429 -63.9345 -46.4385
LeftForeArm  -8.67023 -14.9703 -5.7687
LeftHand  -0.0354311 4.99332 3.64043
RightShoulder  1.21233 2.81432 12.1457
RightArm  -19.0326 66.7685 26.8359
RightForeArm  -25.0374 -3.94402 1.83482
RightHand  -0.0425716 7.34125 -0.753253
LeftUpLeg  -20.4151 2.76312 2.323
LeftLeg  5.38138 -13.308 -1.05163
LeftFoot  12.4243 1.66685 -8.2816
LeftToes  7.91257e-010 -1.64976e-010 -3.02228e-011
741
root  -56.2451 40.2332 12.5296 -63.6979 -86.7609 68.8804
RightUpLeg  -19.4898 -10.6189 -4.36909
RightLeg  12.8047 6.69367 3.5509
RightFoot  2.42815 0.09761 -0.670488
RightToes  -6.98493e-010 0 -3.6325e-017
Spine  24.4482 -4.16663 10.6087
Spine1  4.23092 -0.948828 -7.85132
HEad  -25.6328 -8.31174 1.49972
LeftShoulder1  2.64874 -7.84945 -16.6337
LeftArm  -7.64074 -64.9062 -45.5274
LeftForeArm  -6.77226 -13.8495 -5.58532
LeftHand  -0.0287958 5.27672 2.56063
RightShoulder  1.21454 2.88593 11.9457
RightArm  -20.3553 67.1324 25.4591
RightForeArm  -23.6446 -3.56423 1.62429
RightHand  -0.0482733 6.99998 -0.80678
LeftUpLeg  -20.2814 2.958 1.90893
LeftLeg  5.39825 -9.56643 -0.942046
LeftFoot  11.2228 1.85643 -9.65046
LeftToes  7.91257e-010 -1.64976e-010 -3.02228e-011
742
root  -56.0865 40.2596 12.3688 -62.4893 -86.1886 67.7585
RightUpLeg  -19.8356 -10.9529 -4.63442
RightLeg  12.858 6.68127 3.6075
RightFoot  2.74742 0.10571 -0.704987
RightToes  -6.98493e-010 0 -3.6325e-017
Spine  24.4637 -4.31044 10.6255
Spine1  4.23142 -1.02959 -8.08298
HEad  -25.9729 -7.35901 0.759452
LeftShoulder1  2.61334 -7.95759 -16.0559
LeftArm  -8.53606 -66.2362 -44.2484
LeftForeArm  -5.82404 -12.4235 -5.80864
LeftHand  -0.0193306 5.93248 2.28485
RightShoulder  1.19629 2.79509 11.9277
RightArm  -21.3519 67.5801 24.0974
RightForeArm  -22.0505 -2.83801 1.60394
RightHand  -0.0358415 6.92042 -0.693068
LeftUpLeg  -19.8053 3.0649 1.38626
LeftLeg  6.7198 -6.09106 -0.879086
LeftFoot  8.08095 1.59896 -9.57032
LeftToes  7.91257e-010 -1.64976e-010 -3.02228e-011
743
root  -55.9204 40.3121 12.2557 -65.2123 -85.6057 70.4847
RightUpLeg  -19.931 -11.0562 -5.00793
RightLeg  12.4161 6.851 3.4486
RightFoot  3.41824 0.100516 -0.592618
RightToes  -6.98493e-010 0 -3.6325e-017
Spine  24.3426 -4.24968 9.96993
Spine1  4.54367 -1.13739 -7.54609
HEad  -26.6206 -6.23182 -0.540787
LeftShoulder1  2.57223 -8.00205 -15.5778
LeftArm  -9.73775 -66.6997 -43.0931
LeftForeArm  -4.00356 -11.9396 -5.6918
LeftHand  -0.0266096 5.45947 2.59084
RightShoulder  1.14943 2.62355 11.6704
RightArm  -21.9049 68.4129 22.5843
RightForeArm  -20.2736 -2.08522 1.89597
RightHand  -0.04152 6.30546 -0.750002
LeftUpLeg  -18.7406 2.81706 0.713438
LeftLeg  8.27758 -4.28702 -0.629907
LeftFoot  4.73716 1.02816 -7.48742
LeftToes  7.91257e-010 -1.64976e-010 -3.02228e-011
744
root  -55.748 40.3462 12.2216 -63.3848 -85.254 68.7117
RightUpLeg  -19.9904 -11.4332 -5.33022
RightLeg  11.9197 6.95271 3.67717
RightFoot  4.15907 0.130074 -0.748426
RightToes  -6.98493e-010 0 -3.6325e-017
Spine  23.7761 -4.3158 10.0064
Spine1  4.74787 -1.25591 -7.29291
HEad  -26.9596 -5.20915 -1.75014
LeftShoulder1  2.59918 -8.39599 -15.009
LeftArm  -11.0369 -66.5786 -42.511
LeftForeArm  -0.916629 -11.6332 -5.30737
LeftHand  -0.0119105 6.91066 1.72282
RightShoulder  1.13767 2.62428 11.4626
RightArm  -21.6223 68.2247 21.8938
RightForeArm  -18.1647 -0.876894 2.14958
RightHand  -0.042597 6.10648 -0.766006
LeftUpLeg  -17.5559 3.21899 0.385437
LeftLeg  10.0896 -3.93804 -0.738322
LeftFoot  1.38968 0.70501 -6.3903
LeftToes  7.91257e-010 -1.64976e-010 -3.02228e-011
